<?xml version="1.0" encoding="utf-8"?>
<!-- Generator: Adobe Illustrator 24.1.2, SVG Export Plug-In . SVG Version: 6.00 Build 0)  -->
<svg version="1.1" xmlns="http://www.w3.org/2000/svg" xmlns:xlink="http://www.w3.org/1999/xlink" x="0px" y="0px"
	 viewBox="0 0 532.65 214.86" style="enable-background:new 0 0 532.65 214.86;" xml:space="preserve">
<style type="text/css">
	.st0{fill:#FFFFFF;}
</style>
<g id="Layer_1">
	<g>
		<path class="st0" d="M72.55,121.94v-2c0-1.1,0.9-1.99,1.99-1.99h10.57c1.1,0,2,0.9,2,1.99v2c0,4.89,3.89,8.18,9.67,8.18
			c5.98,0,9.87-2.89,9.87-7.18c0-4.69-1.8-6.98-14.66-10.38c-12.57-3.29-17.85-10.67-17.85-21.15c0-10.97,8.98-19.65,23.14-19.65
			s22.44,8.78,22.44,21.05v0.5c0,1.1-0.9,1.99-1.99,1.99h-10.07c-1.1,0-1.99-0.9-1.99-1.99v-0.5c0-4.39-3.49-7.48-8.38-7.48
			c-5.59,0-8.68,2.39-8.68,6.58c0,3.59,2.49,5.99,14.06,8.98c13.37,3.49,18.45,10.37,18.45,21.05c0,13.16-9.67,21.84-24.34,21.84
			C82.42,143.78,72.55,134.9,72.55,121.94z"/>
		<path class="st0" d="M148.55,120.94V74.06c0-1.1,0.9-1.99,2-1.99h10.07c1.1,0,1.99,0.9,1.99,1.99v46.88
			c0,4.39,3.39,7.98,8.98,7.98c5.79,0,9.18-3.59,9.18-7.98V74.06c0-1.1,0.9-1.99,1.99-1.99h10.07c1.1,0,1.99,0.9,1.99,1.99v46.88
			c0,13.07-10.77,22.04-23.24,22.04C159.32,142.98,148.55,134,148.55,120.94z"/>
		<path class="st0" d="M224.25,141.89V75.06c0-2.1,0.9-2.99,2-2.99h21.94c12.47,0,20.95,9.48,20.95,21.95
			c0,12.47-8.38,21.95-20.95,21.95h-8.98c-0.6,0-1,0.4-1,1v23.94c0,1.1-0.9,1.99-1.99,1.99h-9.97
			C225.15,142.88,224.25,141.99,224.25,141.89z M254.67,94.01c0-4.09-2.89-7.98-6.98-7.98h-8.48c-0.6,0-1,0.4-1,1v13.97
			c0,0.6,0.4,1,1,1h8.48C251.78,101.99,254.67,98.1,254.67,94.01z"/>
		<path class="st0" d="M292.07,141.89V75.06c0-2.1,0.9-2.99,1.99-2.99h21.94c12.47,0,20.95,9.48,20.95,21.95
			c0,12.47-8.38,21.95-20.95,21.95h-8.98c-0.6,0-1,0.4-1,1v23.94c0,1.1-0.9,1.99-1.99,1.99h-9.97
			C292.97,142.88,292.07,141.99,292.07,141.89z M322.5,94.01c0-4.09-2.89-7.98-6.98-7.98h-8.48c-0.6,0-1,0.4-1,1v13.97
			c0,0.6,0.4,1,1,1h8.48C319.6,101.99,322.5,98.1,322.5,94.01z"/>
		<path class="st0" d="M359.89,140.89V74.06c0-1.1,0.9-1.99,2-1.99h9.97c1.1,0,1.99,0.9,1.99,1.99v53.86c0,0.6,0.4,1,1,1h20.95
			c1.1,0,1.99,0.9,1.99,1.99v9.98c0,1.1-0.9,1.99-1.99,1.99h-33.91C360.79,142.88,359.89,141.99,359.89,140.89z"/>
		<path class="st0" d="M427.72,140.89v-25.54l-17.36-39.69c-0.5-1.1-0.6-1.6-0.6-2.2c0-0.7,0.4-1.39,1.6-1.39h11.27
			c0.9,0,1.5,0.4,1.9,1.5L434,98.49c0.2,0.6,0.4,0.9,0.7,0.9c0.3,0,0.5-0.3,0.7-0.9l9.48-24.93c0.4-1.1,1-1.5,1.9-1.5h11.27
			c1.2,0,1.6,0.7,1.6,1.39c0,0.6-0.1,1.1-0.6,2.2l-17.36,39.69v25.54c0,1.1-0.9,1.99-1.99,1.99h-9.98
			C428.62,142.88,427.72,141.99,427.72,140.89z"/>
	</g>
</g>
<g id="Layer_2">
</g>
</svg>
